<svg width="328" height="115" fill="none" xmlns="http://www.w3.org/2000/svg"><g clip-path="url(#clip0)"><path d="M33.864 30.279l-2.74-2.925-2.814 1.406 4.036 3.79 1.518-2.271z" fill="#FF884B"/><path d="M75.418 43.55s-4.382 1.15-7.373-2.59l4.277-1.902 3.096 4.491z" fill="#53D9FF"/><path d="M43.358 75.784l-2.085-4.092-7.094 8.438 1.79 4.765 7.389-9.11z" fill="#FFC52C"/><path d="M73.166 73.903l-2.325-.845 2.68-3.09 2.834 1.518-3.189 2.417z" fill="#FF884B"/><path d="M58.875 94.715s2.86 4.861 8.785 4.182l-2.108-5.445-6.677 1.263z" fill="#53D9FF"/><g clip-path="url(#clip1)"><path d="M145.122 47.554s10.56-.437 15.506 9.571l-10.69 2.218-4.816-11.79z" fill="#00AFE0"/><path d="M101.131 50.195l1.813 4.203-10.97.082-2.518-4.396 11.675.11z" fill="#FFC52C"/><path d="M73.796 22.296l-4.52-3.901-4.246 4.685 6.62 4.726 2.146-5.51z" fill="#FF2F44"/></g></g><g clip-path="url(#clip2)"><path d="M281.166 19.875s9.716 3.214 10.776 13.972l-10.443-1.645-.333-12.327z" fill="#185ADB"/><path d="M266.889 90.835l-4.129 5.728-8.962-14.384 3.836-6.801 9.255 15.457z" fill="#FFC52C"/><path d="M236.039 87.374l1.351 3.709 3.095-.182-2.192-5-2.254 1.474z" fill="#ED4747"/><path d="M261.507 42.773l2.639 2.82 2.709-1.355-3.886-3.655-1.462 2.19z" fill="#2FC1B0"/><path d="M226.542 55.353l2.639 2.82 2.709-1.355-3.887-3.655-1.461 2.19zm80 0l2.639 2.82 2.709-1.355-3.887-3.655-1.461 2.19z" fill="#ED4747"/><path d="M243.868 31.366l.205 4.428-9.967-3.677-.778-4.843 10.54 4.092z" fill="#FFC52C"/><path d="M269.685 18.69l-1.535 1.824 3.714 1.293 1.639-2.614-3.818-.503z" fill="#2FC1B0"/><path d="M290.188 60.182s2.162 10.388-6.956 16.937l-3.945-10.245 10.901-6.692z" fill="#53D9FF"/></g><defs><clipPath id="clip0"><path fill="#fff" transform="rotate(-92.509 68.817 125.234)" d="M0 0h473.232v198.517H0z"/></clipPath><clipPath id="clip1"><path fill="#fff" transform="rotate(66.817 260.815 -77.623)" d="M0 0h431.403v197.41H0z"/></clipPath><clipPath id="clip2"><path fill="#fff" transform="rotate(87.491 325.595 31.67)" d="M0 0h417.754v191.164H0z"/></clipPath></defs></svg>