<svg width="16" height="20" fill="none" xmlns="http://www.w3.org/2000/svg"><path d="M7.14 14.915l-2.998-1-.88-.005-1.536 4.417a.203.203 0 00.213.269l2.155-.226c.06-.006.12.015.163.057l1.549 1.515a.203.203 0 00.334-.079l1.547-4.445-.547-.503z" fill="#185ADB"/><path d="M7.687 15.418L8 14.52l-4.425-1.505-.312.895a8.123 8.123 0 004.424 1.508zm1.173-.503l2.998-1 .88-.005 1.536 4.417a.203.203 0 01-.213.269l-2.155-.226a.203.203 0 00-.163.057l-1.549 1.515a.203.203 0 01-.334-.079l-1.547-4.445.547-.503z" fill="#185ADB"/><path d="M8.313 15.418L8 14.52l4.425-1.505.312.895a8.122 8.122 0 01-4.424 1.508z" fill="#185ADB"/><path d="M8 13.91C.75 13.91.743 7.015.75 6.894a7.26 7.26 0 0114.5 0c.007.121 0 7.016-7.25 7.016z" fill="#FF9838"/><path d="M8 13.788A7.26 7.26 0 01.75 6.894a7.26 7.26 0 1014.501 0A7.26 7.26 0 018 13.788z" fill="#FF8709"/><path d="M13.72 7.26c0 2.449-2.561 5.367-5.72 5.367S2.28 9.548 2.28 7.26a5.72 5.72 0 0111.438 0z" fill="#CE7430"/><path d="M8 12.247a5.72 5.72 0 01-5.707-5.353 5.72 5.72 0 1011.414 0A5.72 5.72 0 018 12.247z" fill="#BC672E"/><path d="M8.007 10.657c-1.231 0-2.015-.85-2.166-1.857-.014-.091-.018-.288-.018-.288a.72.72 0 011.388.263.797.797 0 101.503-.366s-.054-.678-.668-.678c-.616 0-.657-.837-.657-.837a.719.719 0 01.618-.353.797.797 0 000-1.592.797.797 0 00-.796.796.719.719 0 11-1.438 0 2.236 2.236 0 012.234-2.234 2.236 2.236 0 012.234 2.234c0 .584-.225 1.116-.593 1.515.29.313.49.71.563 1.149 0 0 .002.241-.018.364-.179 1.048-.954 1.884-2.186 1.884z" fill="#FFAA5C"/><path d="M8.007 7.247a.718.718 0 01-.618-.353.719.719 0 00.618 1.085c.307 0 .574.175.706.43a.797.797 0 00-.706-1.162zm0 3.03a2.237 2.237 0 01-2.184-1.765.716.716 0 00-.05.263 2.236 2.236 0 002.234 2.233 2.236 2.236 0 002.204-2.599 2.237 2.237 0 01-2.204 1.868z" fill="#EA9957"/></svg>