<svg xmlns="http://www.w3.org/2000/svg" viewBox="0 0 512 512"><path d="M95.464 359.232l321.48-229.216 92.495 89.772C491.845 95.555 385.091 0 256 0 114.615 0 0 114.615 0 256c0 139.851 112.147 253.493 251.414 255.942l-155.95-152.71z" fill="#78d0e8"/><path d="M95.464 359.232l155.95 152.71c1.527.027 3.053.058 4.586.058 141.385 0 256-114.615 256-256 0-12.294-.886-24.38-2.561-36.212l-92.495-89.772-321.48 229.216z" fill="#4cbcd6"/><g fill="#fff"><path d="M362.736 347.888v93.384l-118.288-93.384z"/><path d="M404.76 363.872H107.24c-9.552 0-17.376-7.816-17.376-17.376V142.368c0-9.552 7.816-17.376 17.376-17.376h297.512c9.552 0 17.376 7.816 17.376 17.376v204.136c0 9.552-7.816 17.368-17.368 17.368z"/></g><path d="M170.304 261.208c4.168 2.392 10.4 4.48 16.952 4.48 8.216 0 12.8-3.848 12.8-9.568 0-5.304-3.536-8.424-12.488-11.648-11.544-4.168-18.928-10.296-18.928-20.384 0-11.448 9.568-20.176 24.76-20.176 7.584 0 13.2 1.664 16.84 3.536l-3.12 10.296c-2.496-1.36-7.384-3.328-13.936-3.328-8.112 0-11.648 4.368-11.648 8.424 0 5.408 4.056 7.904 13.416 11.544 12.168 4.568 18.104 10.712 18.104 20.8 0 11.232-8.528 21.008-26.624 21.008-7.384 0-15.088-2.08-18.928-4.368l2.8-10.616zm53.776-21.632c0-5.824-.112-10.712-.424-15.08h11.032l.512 7.488h.312c2.496-3.952 7.072-8.632 15.6-8.632 6.656 0 11.848 3.752 14.04 9.36h.208c1.768-2.808 3.84-4.88 6.232-6.344 2.816-1.968 6.04-3.016 10.192-3.016 8.424 0 16.952 5.728 16.952 21.944v29.848h-12.488v-27.976c0-8.424-2.904-13.416-9.048-13.416-4.368 0-7.592 3.12-8.944 6.76-.304 1.248-.616 2.808-.616 4.264v30.368h-12.488v-29.328c0-7.072-2.808-12.064-8.736-12.064-4.792 0-8.008 3.744-9.16 7.28-.512 1.24-.728 2.704-.728 4.16v29.952h-12.48v-35.568h.032zm87.56 23.816c2.904 1.768 8.424 3.64 13 3.64 5.616 0 8.112-2.288 8.112-5.616 0-3.44-2.08-5.2-8.32-7.384-9.88-3.44-14.04-8.84-13.936-14.776 0-8.944 7.384-15.912 19.144-15.912 5.616 0 10.496 1.464 13.416 3.016l-2.496 9.056c-2.184-1.248-6.24-2.912-10.72-2.912-4.568 0-7.072 2.176-7.072 5.304 0 3.224 2.392 4.784 8.84 7.072 9.152 3.328 13.416 8.008 13.512 15.504 0 9.152-7.168 15.808-20.592 15.808-6.136 0-11.64-1.456-15.392-3.536l2.504-9.264z" fill="#333"/></svg>