<svg width="110" height="110" fill="none" xmlns="http://www.w3.org/2000/svg"><path fill-rule="evenodd" clip-rule="evenodd" d="M83 34.467a3.744 3.744 0 01-3.733 3.733h-3.734a3.745 3.745 0 013.734 3.733 3.761 3.761 0 01-3.734 3.734h-1.866A3.744 3.744 0 0177.4 49.4a3.761 3.761 0 01-3.733 3.733h-15.12l-7.056-.037c-5.003-.075-6.459-.504-9.558-2.576a15.238 15.238 0 00-.933-.541l.261-25.126a8.96 8.96 0 002.894-2.408 24.45 24.45 0 013.509-3.994c5.805-5.358 7.765-3.342 10.547-8.083a15.514 15.514 0 002.034-6.03 3.92 3.92 0 017.822.206 31.92 31.92 0 01-3.734 16.744 1.294 1.294 0 001.12 1.96l10.08.019a3.733 3.733 0 110 7.466h3.734A3.761 3.761 0 0183 34.467z" fill="#FDD7AD"/><path fill-rule="evenodd" clip-rule="evenodd" d="M83 34.467H71.8a1.867 1.867 0 110-3.734h7.467A3.761 3.761 0 0183 34.467zm-3.733 7.466H71.8a1.867 1.867 0 110-3.733h3.733a3.745 3.745 0 013.734 3.733zM77.4 49.4h-7.467a1.867 1.867 0 010-3.733h3.734A3.745 3.745 0 0177.4 49.4z" fill="#F9C795"/><path fill-rule="evenodd" clip-rule="evenodd" d="M38.35 68.683l.111-.112a3.015 3.015 0 00-1.642-5.134l-8.158-1.194a2.95 2.95 0 01-2.24-1.643l-3.64-7.467a2.96 2.96 0 00-5.338 0l-3.64 7.467a2.92 2.92 0 01-2.24 1.643l-8.139 1.194a3.026 3.026 0 00-1.661 5.134l5.898 5.824a2.987 2.987 0 01.859 2.65l-1.4 8.214a2.987 2.987 0 004.33 3.173l7.28-3.883a3.007 3.007 0 012.763 0l7.299 3.883a2.986 2.986 0 004.312-3.173l-.15-.934 5.395-15.642zm38.695 15.642l-.149.934a2.987 2.987 0 004.312 3.173l7.299-3.883a3.007 3.007 0 012.762 0l7.28 3.883a2.986 2.986 0 004.331-3.173l-1.4-8.214a2.986 2.986 0 01.859-2.65l5.898-5.824a3.027 3.027 0 00-1.661-5.134l-8.139-1.194a2.92 2.92 0 01-2.24-1.643l-3.64-7.467a2.96 2.96 0 00-5.338 0l-3.64 7.467a2.95 2.95 0 01-2.24 1.643l-8.158 1.194a3.014 3.014 0 00-1.642 5.134l.112.112 5.394 15.642z" fill="#F29C1F"/><path d="M38.2 23.267h-5.6A3.733 3.733 0 0028.867 27v20.533a3.733 3.733 0 003.733 3.734h5.6a3.733 3.733 0 003.733-3.734V27a3.733 3.733 0 00-3.733-3.733z" fill="#2FA8CC"/><path fill-rule="evenodd" clip-rule="evenodd" d="M57.147 102.764l11.312 6.011a4.625 4.625 0 006.701-4.915L73 91.131a4.689 4.689 0 011.326-4.125l9.146-9.016a4.667 4.667 0 00-2.555-7.95l-12.649-1.867a4.614 4.614 0 01-3.472-2.55L59.14 54.05a4.592 4.592 0 00-8.273 0l-5.656 11.573a4.614 4.614 0 01-3.472 2.55L29.091 70.04a4.667 4.667 0 00-2.556 7.95l9.147 9.016a4.689 4.689 0 011.325 4.125L34.84 103.86a4.623 4.623 0 006.692 4.915l11.312-6.011a4.578 4.578 0 014.303 0z" fill="#F0C419"/></svg>