<svg width="112" height="104" fill="none" xmlns="http://www.w3.org/2000/svg"><path d="M109.809 51.468l-6.774-2.814a3.554 3.554 0 01-2.114-2.545l-1.522-7.176c-.611-2.881-4.26-3.811-6.176-1.573l-4.77 5.573a3.553 3.553 0 01-3.073 1.223l-1.31-.138-3.212 1.422 1.414 16.193L99.52 68.42l2.323-.891.258-3.239a3.554 3.554 0 011.767-2.795l6.354-3.666c2.552-1.471 2.308-5.23-.412-6.36z" fill="#FFBA57"/><path d="M78.89 43.472l5.18.546a6.532 6.532 0 00-1.827 5.73l1.677 9.777c.072.424.382.769.795.892 8.454 2.515 14.362 5.537 17.127 7.111l-.31 3.89-10.767 1.769-10.314-9.87-8.627-9.551 7.066-10.294z" fill="#FFAC3E"/><path d="M2.19 51.468l6.775-2.814a3.554 3.554 0 002.113-2.545l1.523-7.176c.61-2.881 4.26-3.811 6.176-1.573l4.77 5.573a3.553 3.553 0 003.073 1.223l1.31-.138 3.212 1.422-1.414 16.193L12.48 68.42l-2.323-.891-.258-3.239a3.554 3.554 0 00-1.767-2.795l-6.355-3.666c-2.551-1.471-2.308-5.23.413-6.36z" fill="#FFBA57"/><path d="M33.11 43.472l-5.18.546a6.532 6.532 0 011.827 5.73l-1.677 9.777a1.132 1.132 0 01-.795.892c-8.454 2.515-14.362 5.537-17.127 7.111l.31 3.89 10.768 1.769 10.313-9.87 8.627-9.551-7.066-10.294z" fill="#FFAC3E"/><path d="M31.942 41.933a6.534 6.534 0 011.88 5.783l-1.966 11.461 3.63 2.173h41.027l3.631-2.173-1.966-11.461a6.534 6.534 0 011.88-5.783l9.657-9.414c3.878-3.78 1.738-10.366-3.621-11.145l-13.347-1.94a6.534 6.534 0 01-4.92-3.574L61.86 3.767c-2.397-4.856-9.322-4.856-11.718 0l-5.97 12.095a6.534 6.534 0 01-4.919 3.574l-13.347 1.94c-5.359.778-7.498 7.363-3.62 11.144l9.657 9.414z" fill="#FFE27A"/><path d="M31.856 59.177l-.314 1.832a6.596 6.596 0 00.008 2.31h48.9a6.59 6.59 0 00.008-2.31l-.314-1.832A101.317 101.317 0 0056 56.285c-9.202 0-17.327 1.22-24.144 2.892z" fill="#F9CF58"/><path d="M99.43 82.27l-11.846 1.56 1.239 2.843-2.61 1.385-1.69 5.208a1.129 1.129 0 00.655 1.396c8.224 3.286 13.891 7.025 16.576 8.993.742.545 1.787.02 1.795-.901l.066-7.306a1.13 1.13 0 01.6-.987l6.262-3.325a1.128 1.128 0 00.154-1.896c-1.885-1.43-5.686-4.1-11.2-6.97z" fill="#C61926"/><path d="M93.9 91.793c-1.362-.797-3.978-2.217-7.688-3.735l1.372-4.228c5.897 2.374 9.156 4.552 9.173 4.564l-1.255 2.875c-.27.62-1.02.866-1.603.524z" fill="#B2182B"/><path d="M12.57 82.27l11.846 1.56-1.239 2.843 2.61 1.385 1.69 5.208a1.129 1.129 0 01-.655 1.396c-8.224 3.286-13.891 7.025-16.576 8.993a1.128 1.128 0 01-1.795-.901l-.066-7.306a1.13 1.13 0 00-.6-.987l-6.262-3.325a1.128 1.128 0 01-.154-1.896c1.885-1.43 5.686-4.1 11.2-6.97z" fill="#C61926"/><path d="M18.1 91.793c1.362-.797 3.978-2.217 7.687-3.735l-1.371-4.228c-5.897 2.374-9.156 4.552-9.173 4.564l1.255 2.875c.27.62 1.02.866 1.603.524z" fill="#B2182B"/><path d="M94.567 84.543S81.026 75.883 56 75.883s-38.65 9.072-38.65 9.072l-4-.896-4.582-10.5a1.128 1.128 0 01.45-1.418C13.124 69.791 30.4 60.35 56 60.35c25.6 0 42.877 9.441 46.781 11.791.485.292.677.9.45 1.418l-4.582 10.5-4.082.484z" fill="#FF4755"/><path d="M56 73.189c-23.994 0-39.904 9.169-42.65 10.87l1.892 4.335S30.974 77.853 56 77.853c25.026 0 40.758 10.541 40.758 10.541l1.891-4.335C95.903 82.358 79.994 73.19 56 73.19z" fill="#FC2B3A"/></svg>