<svg width="328" height="115" viewBox="0 0 328 115" fill="none" xmlns="http://www.w3.org/2000/svg">
<g clip-path="url(#clip0)">
<path d="M33.8636 30.2785L31.1237 27.3539L28.31 28.7598L32.3458 32.5506L33.8636 30.2785Z" fill="#FF884B"/>
<path d="M75.4185 43.5493C75.4185 43.5493 71.0362 44.7002 68.0449 40.9595L72.3224 39.058L75.4185 43.5493Z" fill="#53D9FF"/>
<path d="M43.3575 75.7845L41.2733 71.6924L34.1792 80.1304L35.9694 84.8946L43.3575 75.7845Z" fill="#FFC52C"/>
<path d="M73.1664 73.903L70.8412 73.0579L73.5212 69.9677L76.3552 71.4857L73.1664 73.903Z" fill="#FF884B"/>
<path d="M58.8747 94.7151C58.8747 94.7151 61.7354 99.5763 67.6599 98.8972L65.5524 93.4516L58.8747 94.7151Z" fill="#53D9FF"/>
<g clip-path="url(#clip1)">
<path d="M145.122 47.5539C145.122 47.5539 155.682 47.1171 160.628 57.1252L149.938 59.343L145.122 47.5539Z" fill="#00AFE0"/>
<path d="M101.131 50.1947L102.944 54.3985L91.9731 54.4797L89.4563 50.0844L101.131 50.1947Z" fill="#FFC52C"/>
<path d="M73.796 22.2957L69.2769 18.3948L65.0296 23.0799L71.65 27.8058L73.796 22.2957Z" fill="#FF2F44"/>
</g>
</g>
<g clip-path="url(#clip2)">
<path d="M281.166 19.8746C281.166 19.8746 290.882 23.089 291.942 33.8474L281.499 32.2018L281.166 19.8746Z" fill="#185ADB"/>
<path d="M266.889 90.8349L262.76 96.563L253.798 82.179L257.634 75.378L266.889 90.8349Z" fill="#FFC52C"/>
<path d="M236.039 87.3745L237.39 91.0826L240.485 90.9007L238.293 85.9006L236.039 87.3745Z" fill="#ED4747"/>
<path d="M261.507 42.7733L264.146 45.5929L266.855 44.2377L262.969 40.583L261.507 42.7733Z" fill="#2FC1B0"/>
<path d="M226.542 55.3532L229.181 58.1728L231.89 56.8176L228.003 53.1629L226.542 55.3532Z" fill="#ED4747"/>
<path d="M306.542 55.3532L309.181 58.1728L311.89 56.8176L308.003 53.1629L306.542 55.3532Z" fill="#ED4747"/>
<path d="M243.868 31.3657L244.073 35.7942L234.106 32.117L233.328 27.2744L243.868 31.3657Z" fill="#FFC52C"/>
<path d="M269.685 18.6898L268.15 20.5136L271.864 21.8069L273.503 19.1928L269.685 18.6898Z" fill="#2FC1B0"/>
<path d="M290.188 60.1816C290.188 60.1816 292.35 70.57 283.232 77.119L279.287 66.8735L290.188 60.1816Z" fill="#53D9FF"/>
</g>
<defs>
<clipPath id="clip0">
<rect width="473.232" height="198.517" fill="white" transform="translate(-53.2844 199.468) rotate(-92.5089)"/>
</clipPath>
<clipPath id="clip1">
<rect width="431.403" height="197.41" fill="white" transform="translate(86.7841 -286.819) rotate(66.8166)"/>
</clipPath>
<clipPath id="clip2">
<rect width="417.754" height="191.164" fill="white" transform="translate(342.981 -295) rotate(87.4911)"/>
</clipPath>
</defs>
</svg>
