<svg width="16" height="20" viewBox="0 0 16 20" fill="none" xmlns="http://www.w3.org/2000/svg">
<path d="M7.13955 14.9146L4.14166 13.9153L3.26283 13.9104L1.7256 18.327C1.67662 18.4676 1.7906 18.6115 1.93877 18.5959L4.09357 18.3703C4.15377 18.364 4.21361 18.3849 4.25689 18.4272L5.80592 19.942C5.9124 20.0461 6.09107 20.0041 6.14002 19.8635L7.68732 15.4179L7.13955 14.9146Z" fill="#185ADB"/>
<path d="M7.6873 15.418L7.99996 14.5197L3.57457 13.0148L3.26285 13.9104C4.51949 14.8071 6.04105 15.356 7.6873 15.418Z" fill="#185ADB"/>
<path d="M8.86044 14.9146L11.8583 13.9153L12.7372 13.9104L14.2744 18.327C14.3234 18.4677 14.2094 18.6115 14.0613 18.596L11.9065 18.3704C11.8463 18.3641 11.7864 18.3849 11.7432 18.4272L10.1942 19.942C10.0877 20.0461 9.90899 20.0041 9.86005 19.8635L8.31274 15.418L8.86044 14.9146Z" fill="#185ADB"/>
<path d="M8.31266 15.418L8 14.5197L12.4254 13.0148L12.7371 13.9104C11.4805 14.8071 9.95891 15.356 8.31266 15.418Z" fill="#185ADB"/>
<path d="M7.99991 13.9104C0.749129 13.9104 0.743113 7.01516 0.749128 6.89395C0.939714 3.05445 4.11311 0 7.99991 0C11.8867 0 15.0601 3.05445 15.2507 6.89395C15.2567 7.01516 15.2507 13.9104 7.99991 13.9104Z" fill="#FF9838"/>
<path d="M8.00005 13.7878C4.11325 13.7878 0.93997 10.7333 0.749345 6.89389C0.743329 7.0151 0.740204 7.13709 0.740204 7.25979C0.740204 11.2693 3.99056 14.5196 8.00005 14.5196C12.0095 14.5196 15.2599 11.2693 15.2599 7.25979C15.2599 7.13709 15.2568 7.0151 15.2508 6.89389C15.0601 10.7333 11.8868 13.7878 8.00005 13.7878Z" fill="#FF8709"/>
<path d="M13.7193 7.25985C13.7193 9.70884 11.1587 12.6275 8.00007 12.6275C4.84144 12.6275 2.28085 9.54825 2.28085 7.25985C2.28085 7.13692 2.28472 7.01493 2.29238 6.89392C2.48105 3.90579 4.96437 1.54063 8.00007 1.54063C11.0358 1.54063 13.5191 3.90579 13.7078 6.89392C13.7154 7.01493 13.7193 7.13692 13.7193 7.25985Z" fill="#CE7430"/>
<path d="M8.00007 12.2472C4.96441 12.2472 2.48156 9.88194 2.29285 6.89389C2.28519 7.01491 2.28085 7.13682 2.28085 7.25979C2.28085 10.4184 4.84144 12.979 8.00007 12.979C11.1587 12.979 13.7193 10.4184 13.7193 7.25979C13.7193 7.13682 13.715 7.01491 13.7073 6.89389C13.5186 9.88194 11.0357 12.2472 8.00007 12.2472Z" fill="#BC672E"/>
<path d="M8.00726 10.657C6.77551 10.657 5.99176 9.80791 5.8409 8.80049C5.82719 8.70885 5.82285 8.51217 5.82285 8.51217C5.92773 8.24494 6.18797 8.05572 6.49238 8.05572C6.88945 8.05572 7.21137 8.3776 7.21137 8.77471C7.21137 9.21357 7.5684 9.5706 8.00726 9.5706C8.44613 9.5706 8.8032 9.21357 8.8032 8.77471C8.8032 8.64275 8.77094 8.51822 8.71387 8.40853C8.71387 8.40853 8.65988 7.73057 8.04578 7.73057C7.42976 7.73057 7.38851 6.89354 7.38851 6.89354C7.51379 6.6824 7.74402 6.54088 8.0073 6.54088C8.44617 6.54088 8.80324 6.18385 8.80324 5.74498C8.80324 5.30611 8.44617 4.94908 8.0073 4.94908C7.56844 4.94908 7.21141 5.30611 7.21141 5.74498C7.21141 6.14209 6.88949 6.46397 6.49242 6.46397C6.09535 6.46397 5.77344 6.14209 5.77344 5.74498C5.77344 4.51326 6.77555 3.51115 8.00726 3.51115C9.23902 3.51115 10.2411 4.51326 10.2411 5.74498C10.2411 6.32904 10.0159 6.86139 9.64762 7.25986C9.93738 7.57338 10.1386 7.96978 10.2112 8.40904C10.2112 8.40904 10.2135 8.65014 10.1926 8.77291C10.0143 9.82064 9.23902 10.657 8.00726 10.657Z" fill="#FFAA5C"/>
<path d="M8.00715 7.24694C7.74387 7.24694 7.5143 7.10498 7.38907 6.89389C7.3254 7.00116 7.28821 7.126 7.28821 7.25979C7.28821 7.6569 7.61008 7.97877 8.00719 7.97877C8.31411 7.97877 8.58051 8.15369 8.71325 8.40881C8.77032 8.29912 8.80313 8.17487 8.80313 8.04291C8.80309 7.60397 8.44602 7.24694 8.00715 7.24694Z" fill="#EA9957"/>
<path d="M8.00724 10.2767C6.93658 10.2767 6.03978 9.51936 5.82345 8.51236C5.79154 8.59369 5.77338 8.68197 5.77338 8.77467C5.77338 10.0064 6.77548 11.0085 8.00724 11.0085C9.239 11.0085 10.2411 10.0064 10.2411 8.77467C10.2411 8.6501 10.2303 8.5281 10.2106 8.40904C10.0353 9.46709 9.11427 10.2767 8.00724 10.2767Z" fill="#EA9957"/>
</svg>
