<svg width="24" height="32" viewBox="0 0 24 32" fill="none" xmlns="http://www.w3.org/2000/svg">
<path d="M5.68907 22.1947L4.42045 22.2565L1.96082 29.3232C1.88245 29.5482 2.06482 29.7784 2.30188 29.7535L5.74957 29.3925C5.84588 29.3825 5.94163 29.4158 6.01088 29.4835L8.48932 31.9072C8.6597 32.0738 8.94557 32.0066 9.02388 31.7815L11.4996 24.6687L10.7696 23.9602L5.68907 22.1947Z" fill="#185ADB"/>
<path d="M11.4997 24.6688L12 23.2316L4.91934 20.8237L4.42059 22.2566C6.43122 23.6913 8.86572 24.5696 11.4997 24.6688Z" fill="#185ADB"/>
<path d="M18.3107 22.1947L19.5794 22.2565L22.039 29.3232C22.1174 29.5482 21.935 29.7784 21.6979 29.7535L18.2502 29.3925C18.1539 29.3825 18.0582 29.4158 17.989 29.4835L15.5106 31.9072C15.3402 32.0738 15.0543 32.0066 14.976 31.7815L12.5003 24.6687L13.2303 23.9602L18.3107 22.1947Z" fill="#185ADB"/>
<path d="M12.5002 24.6688L12 23.2316L19.0806 20.8237L19.5794 22.2566C17.5687 23.6913 15.1342 24.5696 12.5002 24.6688Z" fill="#185ADB"/>
<path d="M11.998 22.5072C0.382282 22.5072 0.387158 11.2242 0.396783 11.0302C0.70172 4.88712 5.77916 0 11.998 0C18.2169 0 23.2943 4.88713 23.5993 11.0303C23.6089 11.2242 23.6138 22.5072 11.998 22.5072Z" fill="#FFE27A"/>
<path d="M12 22.0606C5.78115 22.0606 0.703902 17.1735 0.398902 11.0303C0.389277 11.2243 0.384277 11.4195 0.384277 11.6158C0.384277 18.031 5.58484 23.2315 12 23.2315C18.4152 23.2315 23.6158 18.031 23.6158 11.6158C23.6158 11.4194 23.6108 11.2243 23.6012 11.0303C23.2962 17.1735 18.2189 22.0606 12 22.0606Z" fill="#F9CF58"/>
<path d="M12 20.0079C2.86769 20.0079 2.85544 11.0278 2.86769 10.8341C3.16963 6.05312 7.14288 2.26888 12 2.26888C16.8571 2.26888 20.8304 6.05312 21.1323 10.8341C21.1446 11.0277 21.1323 20.0079 12 20.0079Z" fill="#FFBA57"/>
<path d="M12.0001 19.5956C7.14299 19.5956 3.17043 15.8113 2.86849 11.0303C2.85624 11.224 2.8493 11.4191 2.8493 11.6158C2.8493 16.6696 6.94624 20.7665 12.0001 20.7665C17.0539 20.7665 21.1508 16.6696 21.1508 11.6158C21.1508 11.419 21.1439 11.224 21.1316 11.0303C20.8297 15.8113 16.8571 19.5956 12.0001 19.5956Z" fill="#FFAC3E"/>
<path d="M12.5218 17.0512C11.8865 17.0512 11.3715 16.5362 11.3715 15.9009V15.2924V9.45392C11.3715 9.45392 10.6832 10.1442 9.85959 9.73004C9.21747 9.4071 9.21747 8.57592 9.21747 8.57592L10.6358 6.18179C10.8429 5.83217 11.2192 5.61773 11.6255 5.61773H12.5218C13.1572 5.61773 13.6722 6.13273 13.6722 6.7681V15.2924V15.9009C13.6722 16.5362 13.1572 17.0512 12.5218 17.0512Z" fill="#FFE27A"/>
<path d="M11.2135 8.54995C10.9082 9.06539 10.259 9.28889 9.71757 9.03232C9.49845 8.92851 9.32951 8.7672 9.2172 8.5767C8.89776 9.11707 9.0707 9.81226 9.60257 10.1407C10.1511 10.4794 10.884 10.2772 11.2125 9.72251L11.3716 9.45382V8.59314C11.3716 8.50676 11.2576 8.47557 11.2135 8.54995Z" fill="#F9CF58"/>
<path d="M12.5218 16.4428C11.8865 16.4428 11.3715 15.9278 11.3715 15.2924V16.4634C11.3715 17.0988 11.8865 17.6138 12.5218 17.6138C13.1572 17.6138 13.6722 17.0988 13.6722 16.4634V15.2924C13.6722 15.9278 13.1572 16.4428 12.5218 16.4428Z" fill="#F9CF58"/>
</svg>
