<svg width="110" height="110" viewBox="0 0 110 110" fill="none" xmlns="http://www.w3.org/2000/svg">
<path fill-rule="evenodd" clip-rule="evenodd" d="M83 34.4667C82.9939 36.526 81.326 38.1939 79.2667 38.2H75.5333C77.5927 38.2062 79.2605 39.874 79.2667 41.9333C79.2514 43.9889 77.5889 45.6514 75.5333 45.6667H73.6667C75.726 45.6728 77.3939 47.3407 77.4 49.4C77.3848 51.4555 75.7222 53.1181 73.6667 53.1334H58.5467L51.4907 53.096C46.488 53.0213 45.032 52.592 41.9333 50.52C41.6347 50.3334 41.3173 50.1467 41 49.9787L41.2613 24.8533C42.3854 24.2646 43.3716 23.4438 44.1547 22.4454C45.1758 20.9902 46.3525 19.6507 47.664 18.4507C53.4693 13.0933 55.4293 15.1093 58.2107 10.368C59.2982 8.52042 59.991 6.46746 60.2453 4.33868C60.4314 2.27921 62.1852 0.718436 64.2523 0.772705C66.3195 0.826973 67.989 2.47762 68.0667 4.54402C68.3735 10.3615 67.0824 16.1519 64.3333 21.288C64.0921 21.6893 64.0866 22.1897 64.3189 22.5963C64.5512 23.0028 64.9851 23.2521 65.4533 23.248L75.5333 23.2667C77.5952 23.2667 79.2667 24.9382 79.2667 27C79.2667 29.0619 77.5952 30.7333 75.5333 30.7333H79.2667C81.3222 30.7486 82.9848 32.4112 83 34.4667Z" fill="#FDD7AD"/>
<path fill-rule="evenodd" clip-rule="evenodd" d="M83.0001 34.4667H71.8001C70.7691 34.4667 69.9334 33.6309 69.9334 32.6C69.9334 31.5691 70.7691 30.7333 71.8001 30.7333H79.2667C81.3223 30.7486 82.9848 32.4112 83.0001 34.4667Z" fill="#F9C795"/>
<path fill-rule="evenodd" clip-rule="evenodd" d="M79.2668 41.9334H71.8001C70.7691 41.9334 69.9334 41.0976 69.9334 40.0667C69.9334 39.0358 70.7691 38.2 71.8001 38.2H75.5334C77.5927 38.2062 79.2606 39.8741 79.2668 41.9334Z" fill="#F9C795"/>
<path fill-rule="evenodd" clip-rule="evenodd" d="M77.4 49.4001H69.9333C68.9024 49.4001 68.0667 48.5643 68.0667 47.5334C68.0667 46.5025 68.9024 45.6667 69.9333 45.6667H73.6667C75.726 45.6729 77.3938 47.3407 77.4 49.4001Z" fill="#F9C795"/>
<path fill-rule="evenodd" clip-rule="evenodd" d="M38.3493 68.6826L38.4613 68.5706C39.2767 67.7729 39.5719 66.5833 39.2243 65.497C38.8767 64.4106 37.9456 63.6134 36.8187 63.4373L28.6613 62.2426C27.6874 62.1029 26.8473 61.4868 26.4213 60.5999L22.7813 53.1333C22.2888 52.1064 21.2509 51.4531 20.112 51.4531C18.9731 51.4531 17.9352 52.1064 17.4427 53.1333L13.8027 60.5999C13.381 61.4904 12.5387 62.1081 11.5627 62.2426L3.42401 63.4373C2.29886 63.6154 1.36911 64.4104 1.01834 65.4942C0.667577 66.578 0.955251 67.767 1.76268 68.5706L7.66135 74.3946C8.36742 75.0823 8.68871 76.0741 8.52001 77.0453L7.12001 85.2586C6.91713 86.3823 7.37276 87.5234 8.29386 88.1983C9.21495 88.8733 10.4403 88.964 11.4507 88.4319L18.7307 84.5493C19.5971 84.1012 20.627 84.1012 21.4933 84.5493L28.792 88.4319C29.8011 88.9533 31.0185 88.8572 31.9332 88.184C32.848 87.5108 33.3017 86.377 33.104 85.2586L32.9547 84.3253L38.3493 68.6826Z" fill="#F29C1F"/>
<path fill-rule="evenodd" clip-rule="evenodd" d="M77.0454 84.3253L76.8961 85.2586C76.6984 86.377 77.1521 87.5108 78.0669 88.184C78.9816 88.8572 80.199 88.9533 81.2081 88.4319L88.5067 84.5493C89.3731 84.1012 90.403 84.1012 91.2694 84.5493L98.5494 88.4319C99.5598 88.964 100.785 88.8733 101.706 88.1983C102.627 87.5234 103.083 86.3823 102.88 85.2586L101.48 77.0453C101.311 76.0741 101.633 75.0823 102.339 74.3946L108.237 68.5706C109.045 67.767 109.332 66.578 108.982 65.4942C108.631 64.4104 107.701 63.6154 106.576 63.4373L98.4374 62.2426C97.4614 62.1081 96.619 61.4904 96.1974 60.5999L92.5574 53.1333C92.0648 52.1064 91.0269 51.4531 89.8881 51.4531C88.7492 51.4531 87.7113 52.1064 87.2187 53.1333L83.5787 60.5999C83.1528 61.4868 82.3126 62.1029 81.3387 62.2426L73.1814 63.4373C72.0544 63.6134 71.1234 64.4106 70.7758 65.497C70.4281 66.5833 70.7234 67.7729 71.5387 68.5706L71.6507 68.6826L77.0454 84.3253Z" fill="#F29C1F"/>
<path d="M38.2001 23.2667H32.6001C30.5382 23.2667 28.8668 24.9381 28.8668 27V47.5333C28.8668 49.5952 30.5382 51.2667 32.6001 51.2667H38.2001C40.262 51.2667 41.9334 49.5952 41.9334 47.5333V27C41.9334 24.9381 40.262 23.2667 38.2001 23.2667Z" fill="#2FA8CC"/>
<path fill-rule="evenodd" clip-rule="evenodd" d="M57.1467 102.764L68.4587 108.775C70.0231 109.597 71.9194 109.456 73.3445 108.411C74.7696 107.365 75.4743 105.599 75.16 103.86L73.0003 91.1313C72.7421 89.6223 73.2369 88.0823 74.3256 87.006L83.4723 77.99C84.7371 76.7536 85.1944 74.9085 84.6531 73.2246C84.1119 71.5408 82.6652 70.3076 80.9168 70.0398L68.2683 68.1732C66.7609 67.9487 65.4615 66.9945 64.7963 65.6233L59.1403 54.05C58.3746 52.4615 56.7671 51.4518 55.0038 51.4518C53.2404 51.4518 51.6329 52.4615 50.8672 54.05L45.2112 65.6233C44.546 66.9945 43.2466 67.9487 41.7392 68.1732L29.0907 70.0398C27.3424 70.3076 25.8957 71.5408 25.3544 73.2246C24.8132 74.9085 25.2704 76.7536 26.5352 77.99L35.6819 87.006C36.7706 88.0823 37.2654 89.6223 37.0072 91.1313L34.84 103.86C34.5284 105.597 35.2321 107.359 36.654 108.403C38.076 109.448 39.9683 109.592 41.532 108.775L52.844 102.764C54.1888 102.048 55.8019 102.048 57.1467 102.764Z" fill="#F0C419"/>
</svg>
