<svg width="16" height="20" viewBox="0 0 16 20" fill="none" xmlns="http://www.w3.org/2000/svg">
<path d="M7.19795 14.9528L3.97412 13.8378L3.26283 13.9103L1.7256 18.327C1.67662 18.4676 1.7906 18.6115 1.93877 18.5959L4.09357 18.3703C4.15377 18.364 4.21361 18.3848 4.25689 18.4271L5.80592 19.942C5.9124 20.0461 6.09107 20.0041 6.14002 19.8634L7.68732 15.4179L7.19795 14.9528Z" fill="#185ADB"/>
<path d="M7.6873 15.418L7.99996 14.5197L3.57457 13.0148L3.26285 13.9104C4.51949 14.8071 6.04105 15.356 7.6873 15.418Z" fill="#185ADB"/>
<path d="M8.80204 14.9528L12.0259 13.8378L12.7372 13.9103L14.2744 18.327C14.3234 18.4676 14.2094 18.6115 14.0613 18.5959L11.9065 18.3703C11.8463 18.364 11.7864 18.3848 11.7432 18.4271L10.1942 19.942C10.0877 20.0461 9.90899 20.0041 9.86005 19.8634L8.31274 15.4179L8.80204 14.9528Z" fill="#185ADB"/>
<path d="M8.31266 15.418L8 14.5197L12.4254 13.0148L12.7371 13.9104C11.4805 14.8071 9.95891 15.356 8.31266 15.418Z" fill="#185ADB"/>
<path d="M7.99991 14.0405C0.749129 14.0405 0.743113 7.01516 0.749128 6.89394C0.939714 3.05445 4.11311 0 7.99991 0C11.8841 0 15.0559 3.05039 15.2503 6.88625C15.2566 7.01 15.2503 14.0405 7.99991 14.0405Z" fill="#E0E0E0"/>
<path d="M8.00005 13.7879C4.11325 13.7879 0.93997 10.7335 0.749345 6.89397C0.743329 7.01518 0.740204 7.13717 0.740204 7.25987C0.740204 11.2694 3.99056 14.5197 8.00005 14.5197C12.0095 14.5197 15.2599 11.2694 15.2599 7.25987C15.2599 7.13713 15.2568 7.01518 15.2508 6.89397C15.0601 10.7335 11.8868 13.7879 8.00005 13.7879Z" fill="#CECECE"/>
<path d="M8.00008 12.5246C2.28086 12.5246 2.28473 7.01493 2.29238 6.89391C2.4811 3.90579 4.96438 1.54063 8.00008 1.54063C11.0358 1.54063 13.5191 3.90579 13.7078 6.89391C13.7154 7.01493 13.7078 12.5246 8.00008 12.5246Z" fill="#9E9E9E"/>
<path d="M8.00007 12.2472C4.96441 12.2472 2.48156 9.88194 2.29285 6.89389C2.28519 7.01491 2.28085 7.13686 2.28085 7.25979C2.28085 10.4184 4.84144 12.979 8.00007 12.979C11.1587 12.979 13.7193 10.4184 13.7193 7.25979C13.7193 7.13682 13.715 7.01491 13.7073 6.89389C13.5186 9.88194 11.0357 12.2472 8.00007 12.2472Z" fill="#898989"/>
<path d="M9.64647 10.657H6.36827C5.97121 10.657 5.6646 9.96582 5.69449 9.80785C5.77742 9.36918 5.97261 8.95582 6.26406 8.61133L8.57066 5.88523C8.78648 5.63016 8.69019 5.35531 8.6555 5.27711C8.61335 5.18207 8.4823 4.95984 8.17698 4.94953C8.16816 4.94922 8.15898 4.94906 8.1498 4.94906C7.72093 4.94906 7.37206 5.29797 7.37206 5.72684C7.37206 6.12391 7.05015 6.44582 6.65308 6.44582C6.25601 6.44582 5.9341 6.12394 5.9341 5.72684C5.9341 4.50512 6.92804 3.51109 8.1498 3.51109C8.17507 3.51109 8.20023 3.51152 8.22527 3.51238C8.98972 3.53816 9.65816 3.99105 9.96999 4.69422C10.2865 5.40789 10.1709 6.22016 9.66835 6.81406L7.36179 9.54016C7.35331 9.5502 7.34499 9.56035 7.33687 9.57066H9.64651C9.9098 9.57066 10.14 9.71219 10.2653 9.92332C10.3289 10.0306 10.0435 10.657 9.64647 10.657Z" fill="#E0E0E0"/>
<path d="M9.64636 10.2768H6.36815C6.05917 10.2768 5.79647 10.0815 5.69479 9.80794C5.66491 9.96595 5.64917 10.1271 5.64917 10.2896C5.64917 10.6867 5.97108 11.0086 6.36815 11.0086H9.64636C10.0434 11.0086 10.3653 10.6867 10.3653 10.2896C10.3653 10.1558 10.3281 10.031 10.2645 9.92372C10.1392 10.1348 9.90964 10.2768 9.64636 10.2768Z" fill="#CECECE"/>
</svg>
