<svg width="112" height="104" viewBox="0 0 112 104" fill="none" xmlns="http://www.w3.org/2000/svg">
<path d="M109.809 51.4681L103.035 48.6539C101.954 48.2052 101.164 47.2536 100.921 46.1094L99.3992 38.9331C98.788 36.0517 95.1382 35.122 93.2228 37.3598L88.4527 42.9331C87.6921 43.8217 86.543 44.2793 85.38 44.1564L84.0703 44.0181L80.8582 45.4402L82.2722 61.6332L99.5186 68.4186L101.842 67.528L102.1 64.2895C102.193 63.1235 102.854 62.0779 103.867 61.4936L110.221 57.8282C112.773 56.3567 112.529 52.5981 109.809 51.4681Z" fill="#FFBA57"/>
<path d="M78.8897 43.4716L84.0705 44.0183C82.5675 45.517 81.8835 47.6533 82.2429 49.7482L83.9196 59.5246C83.9924 59.9492 84.302 60.2937 84.7148 60.4167C93.1692 62.9316 99.0768 65.9535 101.842 67.528L101.532 71.4174L90.7645 73.1866L80.4507 63.3177L71.8243 53.7656L78.8897 43.4716Z" fill="#FFAC3E"/>
<path d="M2.19054 51.4681L8.96523 48.6539C10.0454 48.2052 10.8355 47.2536 11.0784 46.1094L12.6006 38.9331C13.2118 36.0517 16.8617 35.122 18.777 37.3598L23.5471 42.9331C24.3077 43.8217 25.4568 44.2793 26.6199 44.1564L27.9295 44.0181L31.1417 45.4402L29.7277 61.6332L12.4812 68.4186L10.1581 67.528L9.89973 64.2895C9.80676 63.1235 9.14592 62.0779 8.13289 61.4936L1.77842 57.8282C-0.77308 56.3567 -0.529612 52.5981 2.19054 51.4681Z" fill="#FFBA57"/>
<path d="M33.1104 43.4716L27.9296 44.0183C29.4326 45.517 30.1166 47.6533 29.7572 49.7482L28.0805 59.5246C28.0076 59.9492 27.6981 60.2937 27.2853 60.4167C18.8309 62.9316 12.9231 65.9535 10.1581 67.528L10.4683 71.4174L21.2356 73.1866L31.5494 63.3177L40.1758 53.7656L33.1104 43.4716Z" fill="#FFAC3E"/>
<path d="M31.9424 41.9327C33.4822 43.4337 34.185 45.5963 33.8215 47.716L31.8558 59.1774L35.4868 61.3496H76.5129L80.144 59.1774L78.1781 47.716C77.8145 45.5965 78.5173 43.4337 80.0571 41.9327L89.7149 32.5185C93.5927 28.7385 91.4529 22.1529 86.094 21.3741L72.7472 19.4347C70.6189 19.1254 68.7793 17.7888 67.8277 15.8605L61.8587 3.76605C59.462 -1.08998 52.5373 -1.08998 50.1407 3.76605L44.1716 15.8605C43.2198 17.7888 41.3804 19.1254 39.2522 19.4347L25.9053 21.3741C20.5464 22.1529 18.4066 28.7385 22.2844 32.5185L31.9424 41.9327Z" fill="#FFE27A"/>
<path d="M31.8561 59.1773L31.5419 61.0089C31.4039 61.8139 31.4164 62.5892 31.5496 63.3182H80.4507C80.5839 62.5892 80.5966 61.8139 80.4584 61.0089L80.1443 59.1773C73.3276 57.5054 65.2021 56.285 56.0002 56.285C46.7982 56.285 38.6727 57.5052 31.8561 59.1773Z" fill="#F9CF58"/>
<path d="M99.4305 82.27L87.5841 83.8295L88.8229 86.6732L86.2128 88.0581L84.5238 93.2661C84.3407 93.8307 84.6271 94.4415 85.1781 94.6618C93.402 97.9483 99.0694 101.687 101.754 103.655C102.496 104.2 103.541 103.675 103.549 102.754L103.615 95.4475C103.619 95.0334 103.849 94.6548 104.215 94.4605L110.477 91.136C111.205 90.7494 111.288 89.7386 110.631 89.2403C108.746 87.8103 104.945 85.1402 99.4305 82.27Z" fill="#C61926"/>
<path d="M93.8991 91.793C92.5376 90.9956 89.9216 89.5764 86.2125 88.0582L87.5838 83.8296C93.4811 86.2035 96.7398 88.3822 96.7569 88.3938L95.5021 91.2693C95.2318 91.8888 94.4825 92.1346 93.8991 91.793Z" fill="#B2182B"/>
<path d="M12.5697 82.27C12.5697 82.27 24.4161 83.8295 24.4158 83.8295L23.1771 86.6732L25.7872 88.0581L27.4762 93.2661C27.6593 93.8307 27.3729 94.4415 26.8219 94.6618C18.598 97.9483 12.9306 101.687 10.2463 103.655C9.50432 104.2 8.45935 103.675 8.45104 102.754L8.38476 95.4475C8.38104 95.0334 8.15091 94.6548 7.78516 94.4605L1.52301 91.136C0.794788 90.7494 0.711663 89.7386 1.36857 89.2403C3.25398 87.8103 7.05476 85.1402 12.5697 82.27Z" fill="#C61926"/>
<path d="M18.1006 91.793C19.4621 90.9956 22.0781 89.5764 25.7872 88.0582L24.4159 83.8296C18.5186 86.2035 15.2599 88.3822 15.2428 88.3938L16.4976 91.2693C16.768 91.8888 17.5172 92.1346 18.1006 91.793Z" fill="#B2182B"/>
<path d="M94.5666 84.5433C94.5666 84.5433 81.0258 75.8839 55.9999 75.8839C30.974 75.8839 17.3496 84.955 17.3496 84.955L13.3502 84.0594L8.76826 73.559C8.54186 73.0403 8.7337 72.4333 9.21867 72.1415C13.1231 69.791 30.3996 60.3498 55.9999 60.3498C81.6002 60.3498 98.8766 69.7912 102.781 72.1415C103.266 72.4333 103.458 73.0403 103.231 73.559L98.6494 84.0592L94.5666 84.5433Z" fill="#FF4755"/>
<path d="M55.9998 73.189C32.006 73.189 16.0965 82.3577 13.3503 84.0594L15.2419 88.3943C15.2419 88.3943 30.9739 77.8525 55.9998 77.8525C81.0257 77.8525 96.7577 88.3943 96.7577 88.3943L98.6493 84.0594C95.9031 82.3577 79.9936 73.189 55.9998 73.189Z" fill="#FC2B3A"/>
</svg>
